HIERARCHY
ROOT Hips
{
	OFFSET 0.000000 71.427986 0.000000
	CHANNELS 6 Xposition Yposition Zposition Xrotation Yrotation Zrotation
	JOINT Pelvis
	{
		OFFSET 0.000000 0.000000 0.000000
		CHANNELS 3 Xrotation Yrotation Zrotation
		JOINT LeftUpLeg
		{
			OFFSET 6.797100 -2.508499 -1.318700
			CHANNELS 3 Xrotation Yrotation Zrotation
			JOINT LeftLeg
			{
				OFFSET 0.069008 -29.241863 0.690200
				CHANNELS 3 Xrotation Yrotation Zrotation
				JOINT LeftFoot
				{
					OFFSET -0.069008 -29.568123 -0.266800
					CHANNELS 3 Xrotation Yrotation Zrotation
					JOINT LeftToeBase
					{
						OFFSET 3.145500 -8.631000 16.059900
						CHANNELS 3 Xrotation Yrotation Zrotation
						End Site
						{
							OFFSET 0.000000 18.501587 0.000000
						}
					}
				}
			}
			JOINT Left_ShortSleeve
			{
				OFFSET 0.265923 -10.480953 1.153800
				CHANNELS 3 Xrotation Yrotation Zrotation
				End Site
				{
					OFFSET 1.725763 19.823879 0.000000
				}
			}
		}
		JOINT RightUpLeg
		{
			OFFSET -6.797100 -2.508499 -1.318700
			CHANNELS 3 Xrotation Yrotation Zrotation
			JOINT RightLeg
			{
				OFFSET -0.082453 -29.241932 0.688000
				CHANNELS 3 Xrotation Yrotation Zrotation
				JOINT RightFoot
				{
					OFFSET 0.082453 -29.568058 -0.264600
					CHANNELS 3 Xrotation Yrotation Zrotation
					JOINT RightToeBase
					{
						OFFSET -3.115300 -8.682800 16.113400
						CHANNELS 3 Xrotation Yrotation Zrotation
						End Site
						{
							OFFSET 0.000000 18.567114 0.000000
						}
					}
				}
			}
			JOINT Right_ShortSleeve
			{
				OFFSET -0.265923 -10.480953 1.153800
				CHANNELS 3 Xrotation Yrotation Zrotation
				End Site
				{
					OFFSET -1.725766 19.823910 0.000000
				}
			}
		}
	}
	JOINT Spine
	{
		OFFSET 0.000000 13.368103 0.470500
		CHANNELS 3 Xrotation Yrotation Zrotation
		JOINT Spine1
		{
			OFFSET 0.147000 13.837402 0.538800
			CHANNELS 3 Xrotation Yrotation Zrotation
			JOINT Spine2
			{
				OFFSET 0.168000 16.242897 -1.435500
				CHANNELS 3 Xrotation Yrotation Zrotation
				JOINT Neck
				{
					OFFSET 0.217200 18.631500 -1.679100
					CHANNELS 3 Xrotation Yrotation Zrotation
					JOINT Head
					{
						OFFSET 0.000000 6.599396 1.385900
						CHANNELS 3 Xrotation Yrotation Zrotation
						JOINT Hat
						{
							OFFSET -0.532200 27.220596 -10.096100
							CHANNELS 3 Xrotation Yrotation Zrotation
							End Site
							{
								OFFSET 0.000000 22.029861 0.000000
							}
						}
						JOINT HairD
						{
							OFFSET -10.777400 17.437393 -1.325900
							CHANNELS 3 Xrotation Yrotation Zrotation
							JOINT HairD1
							{
								OFFSET -3.290299 -11.051193 1.062200
								CHANNELS 3 Xrotation Yrotation Zrotation
								End Site
								{
									OFFSET 0.000000 11.579437 0.000000
								}
							}
						}
						JOINT HairB
						{
							OFFSET -10.777400 17.437393 1.467900
							CHANNELS 3 Xrotation Yrotation Zrotation
							JOINT HairB1
							{
								OFFSET -1.561200 -12.956299 3.590200
								CHANNELS 3 Xrotation Yrotation Zrotation
								End Site
								{
									OFFSET 0.000000 13.534866 0.000000
								}
							}
						}
						JOINT HairA
						{
							OFFSET 9.713100 17.437393 1.467900
							CHANNELS 3 Xrotation Yrotation Zrotation
							JOINT HairA1
							{
								OFFSET 1.561200 -12.956299 3.590200
								CHANNELS 3 Xrotation Yrotation Zrotation
								End Site
								{
									OFFSET 0.000000 13.534866 0.000000
								}
							}
						}
						JOINT HairC
						{
							OFFSET 9.713100 17.437393 -1.325900
							CHANNELS 3 Xrotation Yrotation Zrotation
							JOINT HairC1
							{
								OFFSET 3.290300 -11.051193 1.062200
								CHANNELS 3 Xrotation Yrotation Zrotation
								End Site
								{
									OFFSET 0.000000 11.579437 0.000000
								}
							}
						}
					}
				}
				JOINT LeftShoulder
				{
					OFFSET 5.101800 15.108002 -2.763700
					CHANNELS 3 Xrotation Yrotation Zrotation
					JOINT LeftArm
					{
						OFFSET 9.825497 2.506317 -1.597400
						CHANNELS 3 Xrotation Yrotation Zrotation
						JOINT LeftForeArm
						{
							OFFSET 21.966244 0.000000 0.000000
							CHANNELS 3 Xrotation Yrotation Zrotation
							JOINT LeftHand
							{
								OFFSET 33.879036 0.000000 0.000000
								CHANNELS 3 Xrotation Yrotation Zrotation
								JOINT LeftHandThumb1
								{
									OFFSET 6.715286 -2.359680 3.363841
									CHANNELS 3 Xrotation Yrotation Zrotation
									JOINT LeftHandThumb2
									{
										OFFSET 2.507072 -1.447464 1.447461
										CHANNELS 3 Xrotation Yrotation Zrotation
										JOINT LeftHandThumb3
										{
											OFFSET 2.898338 -1.673355 1.673357
											CHANNELS 3 Xrotation Yrotation Zrotation
											End Site
											{
												OFFSET -0.295959 3.727692 -0.131651
											}
										}
									}
								}
								JOINT LeftHandIndex1
								{
									OFFSET 14.190811 -0.254547 3.840278
									CHANNELS 3 Xrotation Yrotation Zrotation
									JOINT LeftHandIndex2
									{
										OFFSET 3.551727 0.000000 -0.000000
										CHANNELS 3 Xrotation Yrotation Zrotation
										JOINT LeftHandIndex3
										{
											OFFSET 2.894196 0.000000 0.000000
											CHANNELS 3 Xrotation Yrotation Zrotation
											End Site
											{
												OFFSET -1.000603 2.690872 0.366626
											}
										}
									}
								}
								JOINT LeftHandMiddle1
								{
									OFFSET 13.776489 0.000000 0.000000
									CHANNELS 3 Xrotation Yrotation Zrotation
									JOINT LeftHandMiddle2
									{
										OFFSET 3.438232 0.000000 0.000000
										CHANNELS 3 Xrotation Yrotation Zrotation
										JOINT LeftHandMiddle3
										{
											OFFSET 3.691551 0.000000 0.000000
											CHANNELS 3 Xrotation Yrotation Zrotation
											End Site
											{
												OFFSET -1.082298 3.499527 0.457670
											}
										}
									}
								}
								JOINT LeftHandRing1
								{
									OFFSET 13.966164 -0.268127 -3.067488
									CHANNELS 3 Xrotation Yrotation Zrotation
									JOINT LeftHandRing2
									{
										OFFSET 3.162567 0.000000 0.000000
										CHANNELS 3 Xrotation Yrotation Zrotation
										JOINT LeftHandRing3
										{
											OFFSET 3.324348 0.000000 0.000000
											CHANNELS 3 Xrotation Yrotation Zrotation
											End Site
											{
												OFFSET -0.861900 3.184998 0.405154
											}
										}
									}
								}
								JOINT LeftHandPinky1
								{
									OFFSET 13.131393 -0.168503 -5.746925
									CHANNELS 3 Xrotation Yrotation Zrotation
									JOINT LeftHandPinky2
									{
										OFFSET 2.849182 0.000000 0.000000
										CHANNELS 3 Xrotation Yrotation Zrotation
										JOINT LeftHandPinky3
										{
											OFFSET 2.805038 0.000000 0.000000
											CHANNELS 3 Xrotation Yrotation Zrotation
											End Site
											{
												OFFSET -0.882500 2.642609 0.325652
											}
										}
									}
								}
							}
							JOINT Left_Sleeve
							{
								OFFSET 6.592125 -0.646545 0.805568
								CHANNELS 3 Xrotation Yrotation Zrotation
								End Site
								{
									OFFSET -0.000179 20.275787 -0.000000
								}
							}
						}
					}
				}
				JOINT RightShoulder
				{
					OFFSET -5.731700 15.108002 -2.763700
					CHANNELS 3 Xrotation Yrotation Zrotation
					JOINT RightArm
					{
						OFFSET -9.825497 2.506317 -1.597400
						CHANNELS 3 Xrotation Yrotation Zrotation
						JOINT RightForeArm
						{
							OFFSET -21.966242 0.000000 0.000000
							CHANNELS 3 Xrotation Yrotation Zrotation
							JOINT RightHand
							{
								OFFSET -33.879032 0.000000 0.000000
								CHANNELS 3 Xrotation Yrotation Zrotation
								JOINT RightHandThumb1
								{
									OFFSET -6.715286 -2.359680 3.363841
									CHANNELS 3 Xrotation Yrotation Zrotation
									JOINT RightHandThumb2
									{
										OFFSET -2.507072 -1.447464 1.447461
										CHANNELS 3 Xrotation Yrotation Zrotation
										JOINT RightHandThumb3
										{
											OFFSET -2.898338 -1.673355 1.673357
											CHANNELS 3 Xrotation Yrotation Zrotation
											End Site
											{
												OFFSET 0.295959 3.727692 -0.131651
											}
										}
									}
								}
								JOINT RightHandIndex1
								{
									OFFSET -14.190811 -0.254547 3.840278
									CHANNELS 3 Xrotation Yrotation Zrotation
									JOINT RightHandIndex2
									{
										OFFSET -3.551727 0.000000 -0.000000
										CHANNELS 3 Xrotation Yrotation Zrotation
										JOINT RightHandIndex3
										{
											OFFSET -2.894196 0.000000 0.000000
											CHANNELS 3 Xrotation Yrotation Zrotation
											End Site
											{
												OFFSET 1.000603 2.690872 0.366626
											}
										}
									}
								}
								JOINT RightHandMiddle1
								{
									OFFSET -13.776489 0.000000 0.000000
									CHANNELS 3 Xrotation Yrotation Zrotation
									JOINT RightHandMiddle2
									{
										OFFSET -3.438232 0.000000 0.000000
										CHANNELS 3 Xrotation Yrotation Zrotation
										JOINT RightHandMiddle3
										{
											OFFSET -3.691551 0.000000 0.000000
											CHANNELS 3 Xrotation Yrotation Zrotation
											End Site
											{
												OFFSET 1.082298 3.499527 0.457670
											}
										}
									}
								}
								JOINT RightHandRing1
								{
									OFFSET -13.966164 -0.268127 -3.067488
									CHANNELS 3 Xrotation Yrotation Zrotation
									JOINT RightHandRing2
									{
										OFFSET -3.162567 0.000000 0.000000
										CHANNELS 3 Xrotation Yrotation Zrotation
										JOINT RightHandRing3
										{
											OFFSET -3.324348 0.000000 0.000000
											CHANNELS 3 Xrotation Yrotation Zrotation
											End Site
											{
												OFFSET 0.861900 3.184998 0.405154
											}
										}
									}
								}
								JOINT RightHandPinky1
								{
									OFFSET -13.131393 -0.168503 -5.746925
									CHANNELS 3 Xrotation Yrotation Zrotation
									JOINT RightHandPinky2
									{
										OFFSET -2.849182 0.000000 0.000000
										CHANNELS 3 Xrotation Yrotation Zrotation
										JOINT RightHandPinky3
										{
											OFFSET -2.805038 0.000000 0.000000
											CHANNELS 3 Xrotation Yrotation Zrotation
											End Site
											{
												OFFSET 0.882500 2.642609 0.325652
											}
										}
									}
								}
							}
							JOINT Right_Sleeve
							{
								OFFSET -6.592125 -0.646545 0.805568
								CHANNELS 3 Xrotation Yrotation Zrotation
								End Site
								{
									OFFSET 0.000179 20.275787 -0.000000
								}
							}
						}
					}
				}
				JOINT Bind_Right_JacketString
				{
					OFFSET -3.534800 11.969597 7.200700
					CHANNELS 3 Xrotation Yrotation Zrotation
					JOINT Bind_Right_JacketString1
					{
						OFFSET -0.319900 -6.102600 2.794100
						CHANNELS 3 Xrotation Yrotation Zrotation
						End Site
						{
							OFFSET 0.000000 6.719452 0.000000
						}
					}
				}
				JOINT Bind_Left_JacketString
				{
					OFFSET 2.904800 11.969597 7.200700
					CHANNELS 3 Xrotation Yrotation Zrotation
					JOINT Bind_Left_JacketString1
					{
						OFFSET 0.364800 -5.904503 3.186800
						CHANNELS 3 Xrotation Yrotation Zrotation
						End Site
						{
							OFFSET 0.000000 6.719513 0.000000
						}
					}
				}
				JOINT HairE
				{
					OFFSET 5.915200 17.612701 -11.592200
					CHANNELS 3 Xrotation Yrotation Zrotation
					JOINT HairE1
					{
						OFFSET 0.289200 -7.171898 -1.284500
						CHANNELS 3 Xrotation Yrotation Zrotation
						End Site
						{
							OFFSET 0.000000 7.291756 0.000000
						}
					}
				}
				JOINT HairF
				{
					OFFSET -0.864800 17.612701 -11.592200
					CHANNELS 3 Xrotation Yrotation Zrotation
					JOINT HairF1
					{
						OFFSET 0.000000 -14.087097 -2.127501
						CHANNELS 3 Xrotation Yrotation Zrotation
						End Site
						{
							OFFSET 0.000000 14.246841 0.000000
						}
					}
				}
				JOINT HairG
				{
					OFFSET -8.087700 17.612701 -11.592200
					CHANNELS 3 Xrotation Yrotation Zrotation
					JOINT HairG1
					{
						OFFSET -0.293600 -6.081398 -0.910100
						CHANNELS 3 Xrotation Yrotation Zrotation
						End Site
						{
							OFFSET 0.000000 6.156120 0.000000
						}
					}
				}
			}
		}
	}
	JOINT Pouch
	{
		OFFSET 0.000000 4.394501 10.847300
		CHANNELS 3 Xrotation Yrotation Zrotation
		End Site
		{
			OFFSET 0.000000 21.880577 0.000000
		}
	}
	JOINT Bag
	{
		OFFSET -13.229000 4.813004 -0.593300
		CHANNELS 3 Xrotation Yrotation Zrotation
		End Site
		{
			OFFSET 0.000000 21.880577 0.000000
		}
	}
	JOINT OccupyGuyFacialAnim_Joint
	{
		OFFSET 1.000000 -70.206398 -1.655000
		CHANNELS 3 Xrotation Yrotation Zrotation
		End Site
		{
			OFFSET 0.000000 21.880577 0.000000
		}
	}
}
MOTION
Frames: 4
Frame Time: 0.033333
1.280813 69.823380 -3.105513 -4.029302 -2.181911 -2.107985 0.000000 0.000000 0.000000 -8.073203 8.396651 4.810382 26.845613 7.296147 2.082701 -14.395080 6.567997 -4.968791 -0.000000 -0.000002 -0.000000 -0.000001 0.000000 -0.000000 -6.570743 -12.398807 -2.877977 22.961180 2.451029 -1.645996 -12.084832 -3.314945 3.564409 -0.000000 -0.000000 -0.000000 0.000001 -0.000001 -0.000001 1.031678 -1.929085 1.510191 2.775703 -0.294069 0.519628 2.776570 -0.302097 0.509089 10.970186 -0.541720 -0.661827 1.792281 -3.657559 1.784558 -0.000000 -0.000001 0.000000 -0.000000 -0.000001 0.000000 -0.000000 -0.000001 0.000000 -0.000000 -0.000001 0.000000 -0.000000 -0.000001 0.000000 -0.000000 -0.000001 0.000000 -0.000000 -0.000001 0.000000 -0.000000 -0.000001 0.000000 -0.000000 -0.000001 0.000000 1.125168 -0.597680 -7.186442 16.418539 -57.610262 -54.966521 0.000003 -5.335758 0.000009 -3.414383 -9.556243 -3.837832 12.990820 26.240878 -4.033715 1.207950 -0.209766 -1.051016 -0.000000 0.000001 -0.000001 0.762199 4.869476 -9.937236 0.756259 3.142199 -27.058401 0.000001 -0.000001 -0.000002 0.809337 4.744365 -11.046834 0.367023 2.222082 -18.755455 0.000003 0.000001 0.000001 0.861643 4.599618 -12.484839 0.073204 1.003405 -8.345043 -0.000004 0.000000 -0.000001 1.845557 8.431330 -13.235235 -0.018105 -4.056676 -0.491024 -0.000000 -0.000000 -0.000003 0.000001 -0.000000 -0.000001 3.249292 6.223592 6.013264 2.711522 43.936384 64.543901 -0.000016 8.642844 0.000029 -0.538711 10.455831 -4.790584 18.809489 -19.166443 16.610930 1.571716 0.186997 1.723069 0.000000 0.000000 -0.000000 -0.028203 -0.522479 10.985739 1.610757 -4.454970 39.740462 0.000000 -0.000001 -0.000002 0.169613 -1.546798 14.701791 1.438261 -4.239525 37.464933 -0.000000 -0.000002 0.000001 0.562697 -2.790103 19.374472 1.235665 -3.961895 34.632276 0.000001 0.000000 0.000002 0.993281 -3.747476 23.153424 1.080419 -3.727674 32.317726 -0.000003 -0.000000 -0.000003 -0.000003 -0.000000 -0.000000 -0.000000 -0.000000 0.000000 0.000000 -0.000001 0.000000 -0.000000 -0.000000 0.000000 -0.000000 -0.000000 0.000000 -0.000000 -0.000000 0.000000 0.000000 -0.000001 0.000000 -0.000000 -0.000000 0.000000 -0.000000 -0.000000 0.000000 -0.000000 -0.000000 0.000000 0.000000 -0.000001 0.000000 0.000000 0.000000 0.000000 0.000000 0.000000 0.000000 0.000000 0.000000 0.000000 
1.269503 69.828537 -3.116051 -4.146448 -2.218917 -2.109420 -0.000000 -0.000000 -0.000000 -7.954461 8.530975 4.838040 26.813760 7.312497 2.092573 -14.377924 6.472963 -4.985351 -0.000000 -0.000000 0.000000 -0.000000 0.000000 -0.000001 -6.456741 -12.368889 -2.850023 22.949195 2.391380 -1.667247 -12.069112 -3.295884 3.570100 -0.000000 0.000000 0.000000 -0.000001 -0.000002 -0.000001 1.162016 -1.888187 1.514929 2.809949 -0.287219 0.542331 2.810888 -0.294639 0.531734 10.852032 -0.524906 -0.523649 1.735030 -3.487468 1.587781 0.000000 -0.000000 -0.000000 0.000000 -0.000000 -0.000000 0.000000 -0.000000 0.000000 0.000000 -0.000000 -0.000000 0.000000 -0.000000 -0.000000 0.000000 -0.000000 -0.000000 0.000000 -0.000000 -0.000000 0.000000 -0.000000 -0.000000 0.000000 -0.000000 -0.000000 1.127889 -0.597949 -7.231902 16.124279 -57.386963 -55.193137 -0.000004 -5.405704 -0.000010 -3.136250 -9.369511 -3.768137 12.984666 26.563777 -3.917752 1.208138 -0.209184 -1.050873 -0.000001 -0.000001 -0.000001 0.760006 4.856212 -9.940621 0.767013 3.163179 -27.254270 -0.000001 0.000000 -0.000000 0.803574 4.718951 -11.036859 0.372205 2.237251 -18.888461 -0.000001 0.000001 -0.000003 0.856455 4.581816 -12.464539 0.074054 1.009156 -8.393160 -0.000004 0.000000 0.000002 1.839127 8.420045 -13.206288 -0.018112 -4.056685 -0.491038 0.000001 0.000000 0.000001 -0.000001 0.000001 0.000000 3.258110 6.264737 5.987167 2.663800 44.084998 64.541859 -0.000006 8.615142 -0.000004 -0.769454 10.443524 -4.795735 19.300702 -19.450099 17.122832 1.571730 0.186961 1.723097 -0.000000 -0.000001 0.000001 -0.029122 -0.526887 11.107454 1.603524 -4.446265 39.646994 0.000004 0.000000 0.000002 0.167169 -1.544993 15.127874 1.434939 -4.235198 37.419827 -0.000004 -0.000000 -0.000001 0.567534 -2.784195 20.219747 1.232550 -3.957374 34.587344 -0.000002 0.000000 -0.000003 1.021693 -3.756458 24.415382 1.072307 -3.714828 32.192519 -0.000002 -0.000003 -0.000007 0.000001 0.000001 -0.000001 -0.000000 0.000000 -0.000000 0.000000 0.000000 -0.000000 -0.000000 0.000000 -0.000000 -0.000000 0.000000 -0.000000 -0.000000 0.000000 -0.000000 0.000000 0.000000 -0.000000 -0.000000 0.000000 -0.000000 -0.000000 0.000000 -0.000000 -0.000000 0.000000 -0.000000 0.000000 0.000000 -0.000000 -0.000000 -0.000000 -0.000000 -0.000000 -0.000000 -0.000000 -0.000000 -0.000000 -0.000000 
1.257402 69.833427 -3.129501 -4.280484 -2.263088 -2.098540 0.000000 0.000000 -0.000000 -7.815180 8.680026 4.840030 26.770257 7.338990 2.127344 -14.351867 6.380687 -5.013765 0.000000 -0.000000 0.000000 0.000001 -0.000000 -0.000000 -6.341388 -12.320083 -2.838289 22.957343 2.338961 -1.688362 -12.062273 -3.264127 3.576408 0.000000 -0.000002 0.000000 -0.000001 0.000000 -0.000000 1.257416 -1.864965 1.511457 2.838777 -0.283420 0.557913 2.839775 -0.290365 0.547235 10.758141 -0.529596 -0.460591 1.731365 -3.487216 1.545739 0.000001 -0.000001 -0.000000 0.000001 -0.000001 -0.000000 0.000001 -0.000001 0.000000 0.000001 -0.000001 0.000000 -0.000001 -0.000000 -0.000000 0.000001 -0.000001 0.000000 -0.000001 -0.000000 -0.000000 0.000001 -0.000001 -0.000000 0.000001 -0.000001 -0.000000 1.132225 -0.611739 -7.268081 16.043392 -57.313477 -55.225044 0.000001 -5.427152 0.000001 -3.028542 -9.355578 -3.734770 12.978937 26.893460 -3.797951 1.208220 -0.209036 -1.050854 -0.000000 -0.000000 -0.000001 0.767288 4.894765 -9.944118 0.774890 3.178364 -27.396462 0.000003 0.000001 0.000000 0.808095 4.737610 -11.048958 0.375907 2.248078 -18.983348 0.000001 -0.000000 0.000001 0.860617 4.592778 -12.493967 0.074550 1.012705 -8.422788 -0.000005 -0.000001 -0.000001 1.845631 8.424199 -13.250026 -0.018116 -4.056684 -0.491025 0.000000 -0.000001 0.000003 -0.000000 0.000000 -0.000000 3.266788 6.301956 5.968161 2.619713 44.106332 64.562759 -0.000001 8.682531 -0.000025 -0.715019 10.392343 -4.800962 19.930427 -19.614773 17.875729 1.571746 0.186973 1.723096 0.000001 -0.000001 0.000000 -0.036198 -0.497903 11.202613 1.602935 -4.445552 39.639440 -0.000001 0.000003 -0.000001 0.157823 -1.519930 15.557474 1.428923 -4.227341 37.338455 -0.000001 -0.000001 0.000001 0.563024 -2.758796 21.041969 1.222863 -3.943334 34.446700 0.000004 -0.000003 0.000002 1.027012 -3.726932 25.562319 1.058784 -3.693293 31.983013 -0.000000 0.000001 -0.000003 -0.000002 0.000001 -0.000001 -0.000000 -0.000000 0.000000 0.000000 -0.000000 0.000000 -0.000000 -0.000000 0.000000 -0.000000 -0.000000 0.000000 -0.000000 -0.000000 0.000000 0.000000 -0.000000 0.000000 -0.000000 -0.000000 0.000000 -0.000000 -0.000000 0.000000 -0.000000 -0.000000 0.000000 0.000000 -0.000000 0.000000 0.000000 0.000000 -0.000000 0.000000 0.000000 -0.000000 0.000000 0.000000 -0.000000 
1.252954 69.832794 -3.144635 -4.379305 -2.279350 -2.073767 0.000000 0.000000 -0.000000 -7.725216 8.776276 4.804129 26.753977 7.345308 2.180075 -14.333464 6.339848 -5.037321 -0.000000 -0.000002 -0.000000 0.000001 -0.000000 0.000000 -6.290353 -12.289189 -2.866699 23.015909 2.334932 -1.694138 -12.081265 -3.246046 3.575924 -0.000000 -0.000002 0.000000 -0.000001 0.000000 -0.000000 1.324189 -1.861235 1.502543 2.862555 -0.282927 0.565326 2.863600 -0.289542 0.554541 10.684047 -0.549464 -0.463081 1.771280 -3.613140 1.628417 0.000002 -0.000000 0.000000 0.000002 -0.000000 0.000000 0.000002 -0.000000 0.000000 0.000002 -0.000000 0.000000 0.000001 0.000000 -0.000000 0.000002 -0.000000 0.000000 0.000001 0.000000 -0.000000 0.000002 -0.000000 0.000000 0.000002 -0.000000 0.000000 1.137635 -0.635921 -7.296546 16.101230 -57.335695 -55.131474 -0.000007 -5.416468 -0.000006 -3.013068 -9.464906 -3.726747 12.952080 27.216586 -3.649606 1.208160 -0.209169 -1.050851 0.000001 0.000001 0.000000 0.776737 4.949345 -9.936170 0.780050 3.188314 -27.489356 -0.000001 -0.000000 -0.000000 0.817034 4.776411 -11.066079 0.378417 2.255337 -19.047043 0.000001 0.000000 -0.000001 0.869296 4.617992 -12.545853 0.075003 1.015579 -8.447067 -0.000002 -0.000001 -0.000000 1.858993 8.437324 -13.330627 -0.018111 -4.056677 -0.491045 -0.000003 -0.000000 -0.000001 0.000000 0.000000 -0.000002 3.276346 6.338911 5.955563 2.592393 44.037638 64.587218 0.000000 8.829929 0.000001 -0.446499 10.311165 -4.801165 20.586836 -19.697386 18.694684 1.571733 0.186951 1.723095 -0.000000 -0.000001 0.000001 -0.050456 -0.428427 11.240009 1.609289 -4.453202 39.721433 0.000001 0.000002 0.000001 0.137446 -1.457494 15.929058 1.422891 -4.219436 37.256336 -0.000003 0.000000 -0.000001 0.541082 -2.696293 21.777998 1.208466 -3.922316 34.236777 0.000001 0.000000 0.000000 1.000643 -3.646525 26.547222 1.040483 -3.663893 31.697784 0.000001 0.000001 -0.000003 0.000001 -0.000001 0.000001 0.000000 0.000000 -0.000000 0.000000 0.000000 -0.000000 0.000000 0.000000 -0.000000 0.000000 0.000000 -0.000000 0.000000 0.000000 -0.000000 0.000000 0.000000 -0.000000 0.000000 0.000000 -0.000000 0.000000 0.000000 -0.000000 0.000000 0.000000 -0.000000 0.000000 0.000000 -0.000000 0.000000 0.000000 -0.000000 0.000000 0.000000 -0.000000 0.000000 0.000000 -0.000000 
